<svg id="Fläche" xmlns="http://www.w3.org/2000/svg" width="512" height="512" viewBox="0 0 512 512">
  <defs>
    <style>
      .cls-1 {
        fill: #fff;
      }
    </style>
  </defs>
  <title>ricon-check</title>
  <path class="cls-1" d="M256,388.5c73.06,0,132.5-59.44,132.5-132.5S329.06,123.5,256,123.5,123.5,182.94,123.5,256,182.94,388.5,256,388.5Zm0-250A117.5,117.5,0,1,1,138.5,256,117.63,117.63,0,0,1,256,138.5Z"/>
  <path class="cls-1" d="M239.7,294.3a7.48,7.48,0,0,0,10.6,0l66-66a7.5,7.5,0,0,0-10.6-10.6L245,278.39,206.3,239.7a7.5,7.5,0,0,0-10.6,10.6Z"/>
</svg>
