<svg id="Fläche" xmlns="http://www.w3.org/2000/svg" viewBox="0 0 512 512"><defs><style>.cls-1{fill:#fff;}</style></defs><path class="cls-1" d="M256.11,388.54c73.06,0,132.5-59.44,132.5-132.5s-59.44-132.5-132.5-132.5S123.61,183,123.61,256,183.05,388.54,256.11,388.54Zm0-250A117.5,117.5,0,1,1,138.61,256,117.63,117.63,0,0,1,256.11,138.54Z"/><path class="cls-1" d="M206.61,305.53a7.5,7.5,0,0,0,10.61,0l38.89-38.89L295,305.53a7.5,7.5,0,1,0,10.61-10.6L266.72,256l38.89-38.9A7.5,7.5,0,1,0,295,206.54l-38.89,38.89-38.89-38.89a7.5,7.5,0,0,0-10.61,10.6l38.9,38.9-38.9,38.89A7.51,7.51,0,0,0,206.61,305.53Z"/></svg>