<?xml version="1.0" encoding="utf-8"?>
<!-- Generator: Adobe Illustrator 24.1.2, SVG Export Plug-In . SVG Version: 6.00 Build 0)  -->
<svg version="1.1" id="Ebene_1" xmlns="http://www.w3.org/2000/svg" xmlns:xlink="http://www.w3.org/1999/xlink" x="0px" y="0px"
	 viewBox="0 0 566.93 566.93" style="enable-background:new 0 0 566.93 566.93;" xml:space="preserve">
<style type="text/css">
	.st0{fill:#00929C;}
	.st1{fill:#00ADB4;}
	.st2{fill:#007C80;}
</style>
<path class="st0" d="M157.98,219.73l-38.96-22.28l-74.25,42.47v85.06l0,0l74.25,42.47l74.25-42.47h0l0-75.56l0,0v-9.5L157.98,219.73
	z M77.09,324.46l-15.72-8.99l-0.12-0.07v-65.91l0.12-0.07l57.65-32.97l30.78,17.61l18.56,10.62l-15.65,8.96l-33.7-19.28l-41.93,24
	v0.07L77.09,324.46L77.09,324.46z M176.79,315.4l-0.12,0.07l-57.65,32.97l-25.44-14.55l0-65.95l0.06-0.03l25.4-14.53l33.7,19.27
	l24.06-13.78L176.79,315.4z"/>
<path class="st1" d="M261.26,265.2c-2.48-0.99-5.34-1.99-9.68-1.99c-7.45,0-11.55,4.1-11.55,14.28v38.48h-4.59
	c-7.45,0-12.17-3.72-12.17-10.68v-30.78c0-13.41,7.08-26.19,24.7-26.19c10.3,0,13.9,5.83,13.9,10.92v5.96H261.26z"/>
<path class="st2" d="M513.18,315.96c-9.06,0-12.66-4.22-12.66-12.17v-25.82c0-11.05-4.96-15.76-12.29-15.76
	c-6.7,0-11.29,4.72-11.29,13.9v39.85h-4.47c-7.32,0-12.17-4.22-12.17-12.17v-25.82c0-11.05-5.09-15.76-12.41-15.76
	c-6.46,0-11.3,5.09-11.3,14.28v39.47h-4.47c-6.83,0-12.04-4.47-12.04-12.17v-25.94c0-18.25,9.56-30.41,29.79-30.41
	c8.69,0,15.52,3.97,20.36,10.43c3.85-6.21,11.17-10.43,19.24-10.43c15.39,0,27.81,9.31,27.81,28.3v40.22H513.18z"/>
<path class="st0" d="M320.71,252.51c4.17,3.03,7.64,6.95,10.14,11.49c2.44-1.05,5.11-1.66,7.93-1.66c2.82,0,5.49,0.6,7.92,1.65
	c2.5-4.54,5.99-8.46,10.16-11.48c-5.28-3.2-11.46-5.06-18.08-5.06C332.17,247.45,325.99,249.31,320.71,252.51z"/>
<path class="st0" d="M370.16,266.99c-1.7,0.98-3.56,2.34-4.98,4.18c0,0-2.24,2.67-3.18,5.84c-0.94,3.18-0.91,6.06-0.91,6.88
	c0,7.88-6.25,17.85-20.62,18.59c-0.56,0.05-1.12,0.07-1.69,0.07c-0.57,0-1.13-0.02-1.69-0.07c-14.37-0.74-20.62-10.71-20.62-18.59
	c0-0.82,0.03-3.7-0.91-6.88c-0.94-3.18-3.18-5.84-3.18-5.84c-1.43-1.84-3.28-3.2-4.98-4.18c-2.31,4.66-3.63,9.9-3.63,15.46
	c0,6.38,1.73,12.34,4.71,17.49c0.62,1.07,1.29,2.09,2.01,3.08c0.06,0.08,0.12,0.16,0.18,0.24c0.68,0.91,1.4,1.79,2.16,2.63
	c0.09,0.1,0.19,0.21,0.28,0.31c0.76,0.82,1.56,1.61,2.4,2.36c0.09,0.08,0.18,0.16,0.27,0.24c0.92,0.81,1.88,1.57,2.89,2.27
	c5.69,4,12.61,6.38,20.1,6.38c7.49,0,14.41-2.37,20.1-6.37c1.01-0.71,1.97-1.47,2.89-2.28c0.09-0.08,0.17-0.16,0.26-0.24
	c0.84-0.75,1.64-1.54,2.41-2.36c0.09-0.1,0.18-0.2,0.28-0.3c0.76-0.84,1.49-1.72,2.16-2.64c0.06-0.08,0.12-0.15,0.17-0.23
	c0.72-0.99,1.4-2.02,2.02-3.09c2.98-5.15,4.71-11.11,4.71-17.48C373.79,276.89,372.47,271.65,370.16,266.99z"/>
<path class="st1" d="M329.48,298.8c2.6-4.89,4.11-10.44,4.11-16.36c0-19.33-15.67-35-35-35c-19.33,0-35,15.67-35,35
	c0,19.33,15.67,35,35,35c6.64,0,12.83-1.87,18.11-5.08c-0.86-0.62-1.7-1.27-2.5-1.97c-0.09-0.08-0.18-0.16-0.27-0.24
	c-0.84-0.75-1.64-1.53-2.4-2.36c-0.09-0.1-0.19-0.21-0.28-0.31c-0.76-0.84-1.48-1.72-2.16-2.63c-0.06-0.08-0.12-0.16-0.18-0.24
	c-0.72-0.99-1.4-2.02-2.01-3.08c-0.12-0.21-0.23-0.44-0.35-0.65c-2.44,1.06-5.13,1.67-7.96,1.67c-11.1,0-20.11-9-20.11-20.11
	c0-11.1,9-20.11,20.11-20.11c11.1,0,20.1,9,20.1,20.11c0,0.03,0,0.05,0,0.08c0.01,3.38,0.89,6.53,2.38,9.32
	C322.93,294.65,325.72,297.14,329.48,298.8z"/>
<path class="st2" d="M348.1,298.8c-2.6-4.89-4.11-10.44-4.11-16.36c0-19.33,15.67-35,35-35c19.33,0,35,15.67,35,35
	c0,19.33-15.67,35-35,35c-6.64,0-12.83-1.87-18.11-5.08c0.86-0.62,1.7-1.27,2.5-1.97c0.09-0.08,0.18-0.16,0.27-0.24
	c0.84-0.75,1.64-1.53,2.4-2.36c0.09-0.1,0.19-0.21,0.28-0.31c0.76-0.84,1.48-1.72,2.16-2.63c0.06-0.08,0.12-0.16,0.18-0.24
	c0.72-0.99,1.4-2.02,2.01-3.08c0.12-0.21,0.23-0.44,0.35-0.65c2.44,1.06,5.13,1.67,7.96,1.67c11.1,0,20.11-9,20.11-20.11
	c0-11.1-9-20.11-20.11-20.11c-11.1,0-20.1,9-20.1,20.11c0,0.03,0,0.05,0,0.08c-0.01,3.38-0.89,6.53-2.38,9.32
	C354.65,294.65,351.86,297.14,348.1,298.8z"/>
<polygon class="st0" points="44.77,239.91 44.77,324.97 44.77,324.98 61.37,315.47 61.26,315.4 61.26,249.49 61.37,249.42 
	61.37,249.42 44.77,239.91 "/>
<polygon class="st1" points="157.98,219.73 119.02,197.45 44.77,239.91 61.37,249.42 119.02,216.45 149.8,234.06 168.37,244.67 
	152.72,253.64 119.01,234.36 77.09,258.36 77.09,258.43 93.63,267.9 119.03,253.37 152.73,272.64 193.27,249.42 193.27,239.91 "/>
<polygon class="st0" points="176.79,258.86 176.79,315.4 176.67,315.47 193.27,324.98 193.27,324.98 193.27,249.42 "/>
<polygon class="st0" points="93.58,333.89 93.57,267.93 93.63,267.9 77.09,258.43 77.09,324.46 119.02,348.44 "/>
<polygon class="st2" points="176.67,315.47 119.02,348.44 77.09,324.46 77.09,324.46 61.37,315.47 44.77,324.98 119.02,367.45 
	193.27,324.98 "/>
<path class="st2" d="M523.71,256.49c0-5,4.05-9.05,9.05-9.05c5,0,9.05,4.05,9.05,9.05s-4.05,9.05-9.05,9.05
	C527.76,265.54,523.71,261.49,523.71,256.49z M525.74,256.49c0,3.87,3.15,7.02,7.02,7.02s7.02-3.15,7.02-7.02s-3.15-7.02-7.02-7.02
	S525.74,252.62,525.74,256.49z M533.01,258.82c-0.38-0.8-0.6-0.87-1.4-0.95v3.45h-1.17c-1.13,0-1.8-0.67-1.8-1.63v-7.6
	c0.8-0.28,2.3-0.45,3.05-0.45h1.1c2.12,0,3.7,1.17,3.7,2.95c0,1.13-0.7,2.12-1.55,2.5c0.45,0.35,0.8,1.08,1.05,1.58
	c0.58,1.07,0.88,1.6,1.22,1.8v0.3c-0.4,0.4-1,0.55-1.6,0.55C533.91,261.32,533.59,260.02,533.01,258.82z M531.99,253.99
	c-0.08,0-0.22,0-0.38,0.02v1.75c0.28,0.03,0.58,0.03,0.92,0.03c0.65,0,0.97-0.45,0.97-0.9c0-0.57-0.3-0.9-0.97-0.9H531.99z"/>
</svg>
